<svg data-v-0dd9719b="" version="1.0" xmlns="http://www.w3.org/2000/svg" xmlns:xlink="http://www.w3.org/1999/xlink" width="100%" height="100%" viewBox="0 0 340.000000 250.000000" preserveAspectRatio="xMidYMid meet" color-interpolation-filters="sRGB" style="margin: auto;"> <rect data-v-0dd9719b="" x="0" y="0" width="100%" height="100%" fill="#fff" fill-opacity="1" class="background"></rect> <rect data-v-0dd9719b="" x="0" y="0" width="100%" height="100%" fill="url(#watermark)" fill-opacity="1" class="watermarklayer"></rect> <g data-v-0dd9719b="" fill="#333" class="icon-text-wrapper icon-svg-group iconsvg" transform="translate(55.45500183105469,94.98979568481445)"><g class="iconsvg-imagesvg" transform="translate(0,0)"><g><rect fill="#333" fill-opacity="0" stroke-width="2" x="0" y="0" width="60" height="60.020406938359045" class="image-rect"></rect> <svg x="0" y="0" width="60" height="60.020406938359045" filtersec="colorsb750212055" class="image-svg-svg primary" style="overflow: visible;"><svg xmlns="http://www.w3.org/2000/svg" xlink="http://www.w3.org/1999/xlink" viewBox="0.046572934836149216 -0.000028402077077771537 82.14207458496094 82.17002868652344"><defs><radialGradient id="a8a1fff8f-9bfc-48be-84b6-69e0cad396ae" cx="32.78" cy="1601.64" r="61.01" gradientTransform="matrix(1 0 0 -1 0 1614.48)" gradientUnits="userSpaceOnUse"><stop offset="0" stop-color="#d6de23"></stop><stop offset="1" stop-color="#8bc53f"></stop></radialGradient><radialGradient id="b55f02018-079b-4911-bfc5-90336625056a" cx="32.77" cy="1601.63" r="61.02" href="#a8a1fff8f-9bfc-48be-84b6-69e0cad396ae"></radialGradient></defs><path d="M59.54 69c-.54-.76-1.15-1.55-1.82-2.32a97.41 97.41 0 0 0-9.39-9c-1.68-1.46-3.41-2.93-5.14-4.38l-1.21-1c0 .24-.1.47-.14.71-.1.52-.19 1.07-.27 1.57l-.12.82-.11.79A40.18 40.18 0 0 0 41 62.4a26.4 26.4 0 0 0 .73 5.86 14.27 14.27 0 0 0 2.16 4.86 10 10 0 0 0 3.65 3.14 10.85 10.85 0 0 0 4.78 1.09 12.52 12.52 0 0 0 5-1 10.72 10.72 0 0 0 2.13-1.19c.3-.24.6-.49.86-.74l.1-.1s-.06.07 0 0l.14-.15.05-.06a2.45 2.45 0 0 0 .23-.29 1.72 1.72 0 0 0 .35-1 4.32 4.32 0 0 0-.38-1.6A12.49 12.49 0 0 0 59.54 69z" fill="#00a69c"></path><path d="M37.39 77.56A21.84 21.84 0 0 1 34.28 70a30.69 30.69 0 0 1-.62-7.64 53.9 53.9 0 0 1 2.59-14.27c.06-.18.13-.36.19-.55-1.22-1-2.41-2.07-3.59-3.15l-1.29-1.19-1.3-1.2c-.85-.8-1.69-1.62-2.52-2.45A72.26 72.26 0 0 1 23 34.28a48.08 48.08 0 0 1-4.17-5.86 33.39 33.39 0 0 1-3.13-6.61 23.87 23.87 0 0 1-1.34-7.32 21.29 21.29 0 0 1 .5-5 41.09 41.09 0 0 0 26.23 72.68h.77a17.79 17.79 0 0 1-4.47-4.61z" fill="url(#a8a1fff8f-9bfc-48be-84b6-69e0cad396ae)"></path><path d="M67.18 9.36c-.37.36-.74.73-1.1 1.1-1.6 1.61-3.13 3.27-4.62 5A103.65 103.65 0 0 0 53.3 26a79.09 79.09 0 0 0-9.24 18.45l3.87 3c1.79 1.41 3.58 2.82 5.38 4.27s3.58 2.94 5.32 4.51a68.26 68.26 0 0 1 5.16 5.07 35.17 35.17 0 0 1 2.42 3 20.26 20.26 0 0 1 2.11 3.7 12.49 12.49 0 0 1 .9 3 41.07 41.07 0 0 0-2-61.66z" fill="url(#b55f02018-079b-4911-bfc5-90336625056a)"></path><path d="M41.09 0a41 41 0 0 0-22.17 6.48c-.15.52-.28 1-.38 1.56a17.82 17.82 0 0 0-.25 6.17 25.18 25.18 0 0 0 5 11.3 61.5 61.5 0 0 0 8.87 9.42c.82.73 1.66 1.44 2.5 2.13l1.28 1 1.31 1 1.91 1.49a73.84 73.84 0 0 1 10.89-16.97 86.47 86.47 0 0 1 9.79-9.82 81.41 81.41 0 0 1 6.55-5A40.9 40.9 0 0 0 41.09 0zm-4.25 25.85c-3.27 0-5.92-3.8-5.92-8.5s2.65-8.5 5.92-8.5 5.94 3.81 5.94 8.5-2.65 8.5-5.94 8.5z" fill="#00a69c"></path></svg></svg> <!----></g></g> <g transform="translate(67,5.583955764770508)"><g data-gra="path-name" fill-rule="" class="tp-name iconsvg-namesvg" transform="translate(0,0)"><g transform="scale(1)"><g><path d="M31.72-0.4L3.01-0.4 6.12-22.81 1.57-22.81 2.21-27.49 6.79-27.49 7.2-30.38 5.71-31.9 15.57-31.9 14.94-27.49 27.13-27.49 27.58-30.46 26.1-31.9 36.13-31.9 35.5-27.49 39.78-27.49 39.15-22.81 34.83-22.81 31.72-0.4ZM11.74-4.77L23.94-4.77 24.97-12.2 12.78-12.2 11.74-4.77ZM14.26-22.81L13.41-16.56 25.61-16.56 26.5-22.81 14.26-22.81ZM45.09-24.79L60.03-24.79 60.25-26.41 46.89-26.41 47.43-30.29 60.8-30.29 60.93-31.09 58.95-31.99 68.76-31.99 68.49-30.29 81.63-30.29 80.86-24.79 82.66-24.79 82.13-20.88 80.32-20.88 79.6-15.75 66.47-15.75 64.22 0.27 56.52 0.27 58.77-15.75 45.41-15.75 45.95-19.66 59.31-19.66 59.49-20.88 44.55-20.88 45.09-24.79ZM75.28-14.94L81.27-14.94 79.11 0.32 73.13 0.32 75.28-14.94ZM44.41-14.94L50.4-14.94 48.87-3.82 47.52 0.32 41.53 0.32 42.88-3.82 44.41-14.94ZM52.38-14.04L57.15-14.04 54.41-0.4 49.63-0.4 52.38-14.04ZM67.5-14.04L72.18-14.04 71.14-0.36 66.47-0.36 67.5-14.04ZM73.39-26.41L66.64-26.41 66.42-24.79 73.17-24.79 73.39-26.41ZM65.7-19.66L72.45-19.66 72.63-20.88 65.88-20.88 65.7-19.66ZM107.91-13.32L115.88-13.32 118.57 0.32 110.61 0.32 110.29-1.17 84.64 0 85.27-4.63 93.69-16.25 84.33-16.25 84.91-20.56 122.63-20.56 122.04-16.25 103.09-16.25 95.17-5.13 109.39-5.8 107.91-13.32ZM89.77-31.18L121.5-31.18 120.87-26.77 89.14-26.77 89.77-31.18ZM148.14-21.96L148.05-8.14 141.97-8.14 142.11-21.96 148.14-21.96ZM162.67 0.36L148.99 0.36 152.77-26.68 141.79-26.68 134.86 0.36 126.09 0.36 133.6-29.47 132.21-31.09 161.55-31.09 157.9-5.08 161.73-5.08 163.66-6.79 162.67 0.36Z" transform="translate(-1.5699999332427979, 31.989999771118164)"></path></g> <!----> <!----> <!----> <!----> <!----> <!----> <!----></g></g> <g data-gra="path-slogan" fill-rule="" class="tp-slogan iconsvg-slogansvg" fill="#333" transform="translate(5,38.349998474121094)"><rect x="0" height="1" y="4.75" width="24.459999084472656"></rect> <rect height="1" y="4.75" width="24.459999084472656" x="127.62999725341797"></rect> <g transform="translate(27.459999084472656,0)"><g transform="scale(1)"><path d="M7.83-8.58L4.59-3.47L4.59 0L3.42 0L3.42-3.47L0.19-8.58L1.55-8.58L3.98-4.45L6.47-8.58L7.83-8.58ZM14.53-3.19L14.53-8.58L15.70-8.58L15.70-3.05Q15.56 0.05 12.19 0.14L12.19 0.14Q9.05 0.05 8.91-2.86L8.91-2.86L8.91-8.58L10.08-8.58L10.08-3.19Q10.13-0.84 12.23-0.80L12.23-0.80Q14.53-0.84 14.53-3.19L14.53-3.19ZM18.89-8.58L23.20-1.64L23.20-8.58L24.33-8.58L24.33 0L23.02 0L18.66-6.94L18.61-6.94L18.61 0L17.48 0L17.48-8.58L18.89-8.58ZM31.64-3.89L27.42-3.89L27.42 0L26.25 0L26.25-8.58L32.20-8.58L32.20-7.59L27.42-7.59L27.42-4.92L31.64-4.92L31.64-3.89ZM39.05 0L38.20-2.48L34.73-2.48L33.84 0L32.67 0L35.91-8.58L37.22-8.58L40.31 0L39.05 0ZM36.47-7.31L35.11-3.52L37.78-3.52L36.52-7.31L36.47-7.31ZM42.75-8.58L47.06-1.64L47.06-8.58L48.19-8.58L48.19 0L46.88 0L42.52-6.94L42.47-6.94L42.47 0L41.34 0L41.34-8.58L42.75-8.58ZM50.77 0L50.11 0L50.11-1.27L51.38-1.27L51.38-0.09Q51.38 1.45 50.11 1.69L50.11 1.69L50.11 1.08Q50.77 0.98 50.77 0L50.77 0ZM63.05-3.61L60.42-3.61L60.42-4.59L64.17-4.59L64.17 0L63.42 0L63.14-1.08Q62.16 0.09 60.33 0.14L60.33 0.14Q58.59 0.14 57.66-0.75L57.66-0.75Q56.25-2.06 56.30-4.36L56.30-4.36Q56.63-8.63 60.38-8.81L60.38-8.81Q63.56-8.63 64.03-6L64.03-6L62.91-6Q62.44-7.78 60.33-7.83L60.33-7.83Q57.66-7.64 57.52-4.31L57.52-4.31Q57.52-0.75 60.38-0.75L60.38-0.75Q61.41-0.75 62.16-1.31L62.16-1.31Q63.09-2.06 63.05-3.61L63.05-3.61ZM71.63 0L70.78-2.48L67.31-2.48L66.42 0L65.25 0L68.48-8.58L69.80-8.58L72.89 0L71.63 0ZM69.05-7.31L67.69-3.52L70.36-3.52L69.09-7.31L69.05-7.31ZM75.33-8.58L79.64-1.64L79.64-8.58L80.77-8.58L80.77 0L79.45 0L75.09-6.94L75.05-6.94L75.05 0L73.92 0L73.92-8.58L75.33-8.58ZM88.83-6.09L88.83-6.09L87.75-6.09Q87.66-7.73 85.59-7.83L85.59-7.83Q83.67-7.78 83.67-6.33L83.67-6.33Q83.67-5.39 84.70-5.25L84.70-5.25L87.14-4.69Q89.06-4.22 89.06-2.34L89.06-2.34Q89.02 0.05 85.69 0.14L85.69 0.14Q83.86 0.14 83.11-0.61L83.11-0.61Q82.17-1.31 82.22-2.77L82.22-2.77L83.34-2.77Q83.39-0.80 85.69-0.75L85.69-0.75Q87.94-0.80 87.98-2.20L87.98-2.20Q88.17-3.38 86.11-3.75L86.11-3.75L84.33-4.13Q82.50-4.64 82.50-6.19L82.50-6.19Q82.64-8.72 85.50-8.81L85.50-8.81Q88.73-8.81 88.83-6.09ZM96.19-3.19L96.19-8.58L97.36-8.58L97.36-3.05Q97.22 0.05 93.84 0.14L93.84 0.14Q90.70 0.05 90.56-2.86L90.56-2.86L90.56-8.58L91.73-8.58L91.73-3.19Q91.78-0.84 93.89-0.80L93.89-0.80Q96.19-0.84 96.19-3.19L96.19-3.19Z" transform="translate(-0.1875, 8.8125)"></path></g></g></g></g></g><defs v-gra="od"></defs></svg>